<svg width="44" height="44" viewBox="0 0 44 44" fill="none" xmlns="http://www.w3.org/2000/svg">
<path fill-rule="evenodd" clip-rule="evenodd" d="M21.468 5.93722C19.045 5.93722 16.7212 6.89978 15.0078 8.61314C13.2944 10.3265 12.3319 12.6503 12.3319 15.0734C12.3319 17.4964 13.2944 19.8202 15.0078 21.5336C16.7212 23.247 19.045 24.2095 21.468 24.2095C23.8911 24.2095 26.2149 23.247 27.9283 21.5336C29.6416 19.8202 30.6042 17.4964 30.6042 15.0734C30.6042 12.6503 29.6416 10.3265 27.9283 8.61314C26.2149 6.89978 23.8911 5.93722 21.468 5.93722V5.93722ZM10.0479 15.0734C10.0479 12.8634 10.6891 10.7008 11.8939 8.84808C13.0986 6.99531 14.815 5.5319 16.835 4.63533C18.855 3.73876 21.0917 3.44755 23.2739 3.79701C25.4561 4.14647 27.49 5.1216 29.129 6.60412C30.7679 8.08665 31.9416 10.0129 32.5075 12.1492C33.0734 14.2855 33.0073 16.5401 32.3171 18.6396C31.627 20.7391 30.3426 22.5933 28.6196 23.9772C26.8965 25.3612 24.809 26.2154 22.6101 26.4364V31.0616H27.1781C27.481 31.0616 27.7715 31.1819 27.9857 31.3961C28.1998 31.6103 28.3201 31.9008 28.3201 32.2036C28.3201 32.5065 28.1998 32.797 27.9857 33.0112C27.7715 33.2253 27.481 33.3457 27.1781 33.3457H22.6101V39.0557C22.6101 39.3586 22.4897 39.6491 22.2756 39.8633C22.0614 40.0774 21.7709 40.1978 21.468 40.1978C21.1652 40.1978 20.8747 40.0774 20.6605 39.8633C20.4463 39.6491 20.326 39.3586 20.326 39.0557V33.3457H15.7579C15.4551 33.3457 15.1646 33.2253 14.9504 33.0112C14.7362 32.797 14.6159 32.5065 14.6159 32.2036C14.6159 31.9008 14.7362 31.6103 14.9504 31.3961C15.1646 31.1819 15.4551 31.0616 15.7579 31.0616H20.326V26.4364C17.5091 26.1533 14.8977 24.834 12.9986 22.7343C11.0994 20.6347 10.0478 17.9045 10.0479 15.0734V15.0734Z" fill="#1E1E1E"/>
</svg>
