<svg width="45" height="45" viewBox="0 0 45 45" fill="none" xmlns="http://www.w3.org/2000/svg">
<path d="M17.6363 36.4306C20.1286 36.4306 22.5188 35.4406 24.2811 33.6782C26.0434 31.9159 27.0334 29.5257 27.0334 27.0335C27.0334 24.5412 26.0434 22.151 24.2811 20.3887C22.5188 18.6264 20.1286 17.6363 17.6363 17.6363C15.144 17.6363 12.7538 18.6264 10.9915 20.3887C9.2292 22.151 8.23915 24.5412 8.23915 27.0335C8.23915 29.5257 9.2292 31.9159 10.9915 33.6782C12.7538 35.4406 15.144 36.4306 17.6363 36.4306V36.4306ZM17.6363 38.7799C14.5209 38.7799 11.5332 37.5423 9.33031 35.3394C7.12743 33.1366 5.88986 30.1488 5.88986 27.0335C5.88986 23.9181 7.12743 20.9304 9.33031 18.7275C11.5332 16.5246 14.5209 15.287 17.6363 15.287C20.7516 15.287 23.7394 16.5246 25.9423 18.7275C28.1452 20.9304 29.3827 23.9181 29.3827 27.0335C29.3827 30.1488 28.1452 33.1366 25.9423 35.3394C23.7394 37.5423 20.7516 38.7799 17.6363 38.7799V38.7799ZM28.2081 5.88989H37.6052C38.3883 5.88989 38.7799 6.28144 38.7799 7.06454C38.7799 7.84763 38.3883 8.23918 37.6052 8.23918H28.2081C27.425 8.23918 27.0334 7.84763 27.0334 7.06454C27.0334 6.28144 27.425 5.88989 28.2081 5.88989Z" fill="#1E1E1E"/>
<path d="M37.5991 5.88989C38.3822 5.88989 38.7738 6.28144 38.7738 7.06454V16.4617C38.7738 17.2448 38.3822 17.6363 37.5991 17.6363C36.816 17.6363 36.4245 17.2448 36.4245 16.4617V7.06454C36.4245 6.28144 36.816 5.88989 37.5991 5.88989Z" fill="#1E1E1E"/>
<path d="M26.2097 20.1167L24.5511 18.4557L36.7721 6.23242L38.4354 7.89567L26.2097 20.1167Z" fill="#1E1E1E"/>
</svg>
