<svg width="45" height="44" viewBox="0 0 45 44" fill="none" xmlns="http://www.w3.org/2000/svg">
<path fill-rule="evenodd" clip-rule="evenodd" d="M4.32642 4.79533C4.32642 4.49245 4.44674 4.20198 4.6609 3.98781C4.87507 3.77364 5.16555 3.65332 5.46843 3.65332H12.3205C12.6234 3.65332 12.9139 3.77364 13.128 3.98781C13.3422 4.20198 13.4625 4.49245 13.4625 4.79533C13.4625 5.09822 13.3422 5.38869 13.128 5.60286C12.9139 5.81703 12.6234 5.93735 12.3205 5.93735H8.22525L12.3205 10.0326L13.796 8.55484C13.9022 8.44866 14.0282 8.36444 14.167 8.30697C14.3057 8.24951 14.4544 8.21993 14.6045 8.21993C14.7547 8.21993 14.9034 8.24951 15.0421 8.30697C15.1809 8.36444 15.3069 8.44866 15.4131 8.55484C15.5193 8.66102 15.6035 8.78708 15.661 8.92581C15.7184 9.06454 15.748 9.21323 15.748 9.36339C15.748 9.51355 15.7184 9.66224 15.661 9.80097C15.6035 9.9397 15.5193 10.0658 15.4131 10.1719L13.9353 11.6474L15.8128 13.5249C16.6685 12.5734 17.715 11.8127 18.8842 11.2925C20.0533 10.7722 21.3189 10.5041 22.5986 10.5054C25.2938 10.5054 27.7126 11.6703 29.3845 13.5249L36.972 5.93735H30.5927C30.2899 5.93735 29.9994 5.81703 29.7852 5.60286C29.571 5.38869 29.4507 5.09822 29.4507 4.79533C29.4507 4.49245 29.571 4.20198 29.7852 3.98781C29.9994 3.77364 30.2899 3.65332 30.5927 3.65332H39.7288C40.0317 3.65332 40.3222 3.77364 40.5364 3.98781C40.7505 4.20198 40.8709 4.49245 40.8709 4.79533V13.9314C40.8709 14.2343 40.7505 14.5248 40.5364 14.739C40.3222 14.9531 40.0317 15.0735 39.7288 15.0735C39.426 15.0735 39.1355 14.9531 38.9213 14.739C38.7072 14.5248 38.5868 14.2343 38.5868 13.9314V7.55216L30.7069 15.4321C31.3859 16.7387 31.7389 18.1902 31.736 19.6627C31.7331 21.1353 31.3742 22.5853 30.6901 23.8893C30.0059 25.1932 29.0166 26.3125 27.8066 27.1517C26.5966 27.9909 25.2017 28.5252 23.7407 28.7091V33.3457H27.1667C27.4696 33.3457 27.7601 33.466 27.9742 33.6802C28.1884 33.8943 28.3087 34.1848 28.3087 34.4877C28.3087 34.7906 28.1884 35.0811 27.9742 35.2952C27.7601 35.5094 27.4696 35.6297 27.1667 35.6297H23.7407V39.0558C23.7407 39.3586 23.6203 39.6491 23.4062 39.8633C23.192 40.0774 22.9015 40.1978 22.5986 40.1978C22.2958 40.1978 22.0053 40.0774 21.7911 39.8633C21.5769 39.6491 21.4566 39.3586 21.4566 39.0558V35.6297H18.0306C17.7277 35.6297 17.4372 35.5094 17.2231 35.2952C17.0089 35.0811 16.8886 34.7906 16.8886 34.4877C16.8886 34.1848 17.0089 33.8943 17.2231 33.6802C17.4372 33.466 17.7277 33.3457 18.0306 33.3457H21.4566V28.7091C19.9953 28.5254 18.6 27.9911 17.3897 27.1517C16.1794 26.3124 15.19 25.1928 14.5058 23.8886C13.8216 22.5843 13.4629 21.1339 13.4602 19.6611C13.4575 18.1882 13.8109 16.7365 14.4903 15.4298L12.3205 13.2622L10.845 14.74C10.7389 14.8462 10.6128 14.9304 10.4741 14.9879C10.3353 15.0453 10.1866 15.0749 10.0365 15.0749C9.88632 15.0749 9.73763 15.0453 9.5989 14.9879C9.46017 14.9304 9.33412 14.8462 9.22794 14.74C9.12176 14.6338 9.03753 14.5078 8.98007 14.369C8.92261 14.2303 8.89303 14.0816 8.89303 13.9314C8.89303 13.7813 8.92261 13.6326 8.98007 13.4939C9.03753 13.3551 9.12176 13.2291 9.22794 13.1229L10.7057 11.6474L6.61044 7.55216V11.6474C6.61044 11.9503 6.49012 12.2408 6.27596 12.4549C6.06179 12.6691 5.77131 12.7894 5.46843 12.7894C5.16555 12.7894 4.87507 12.6691 4.6609 12.4549C4.44674 12.2408 4.32642 11.9503 4.32642 11.6474V4.79533ZM16.8657 15.8866C16.3726 16.6394 16.0326 17.482 15.8652 18.3663C15.6977 19.2505 15.706 20.1591 15.8897 21.0401C16.0734 21.9212 16.4288 22.7574 16.9356 23.5011C17.4425 24.2448 18.0908 24.8813 18.8437 25.3744C19.5966 25.8675 20.4392 26.2075 21.3234 26.375C22.2077 26.5425 23.1162 26.5341 23.9973 26.3504C24.8783 26.1668 25.7145 25.8114 26.4582 25.3045C27.2019 24.7977 27.8384 24.1493 28.3315 23.3965C29.3274 21.876 29.6785 20.0222 29.3076 18.2429C28.9366 16.4636 27.874 14.9045 26.3536 13.9086C24.8331 12.9127 22.9793 12.5616 21.2 12.9326C19.4207 13.3035 17.8616 14.3661 16.8657 15.8866Z" fill="#1E1E1E"/>
</svg>
